<svg width="81" height="36" viewBox="0 0 81 36" fill="none" xmlns="http://www.w3.org/2000/svg">
  <path d="M23.8526 18.5569H16.7081V16.9494C16.7081 16.8675 16.7404 16.789 16.7978 16.7311C16.8553 16.6732 16.9331 16.6406 17.0144 16.6406H21.9416L23.8526 18.5569Z" fill="#FF8D0A" />
  <path d="M25.9792 20.7062H16.6688V19.1004C16.6711 19.02 16.7043 18.9437 16.7615 18.8877C16.8187 18.8316 16.8953 18.8003 16.9751 18.8003H24.123L25.9792 20.7062Z" fill="#FF8D0A" />
  <path d="M28.1314 22.8572H16.7081V21.2497C16.7081 21.1678 16.7404 21.0892 16.7978 21.0313C16.8553 20.9734 16.9331 20.9409 17.0144 20.9409H26.2187L28.1314 22.8572Z" fill="#FF8D0A" />
  <path
    d="M38.3503 33.1555L34.4154 29.1885L28.3641 23.0879H24.7714L32.0869 30.4649L36.5454 34.9597C36.6351 35.0506 36.7417 35.1228 36.8591 35.1721C36.9766 35.2213 37.1025 35.2467 37.2297 35.2467C37.3569 35.2467 37.4829 35.2213 37.6003 35.1721C37.7178 35.1228 37.8244 35.0506 37.9141 34.9597L38.3469 34.5233C38.5259 34.3417 38.6267 34.0962 38.6273 33.8401C38.628 33.5841 38.5284 33.3381 38.3503 33.1555Z"
    fill="#FF8D0A"
  />
  <path
    d="M39.1031 28.3036L35.394 24.5642V13.4962C35.394 11.4265 35.0285 10.0144 34.2973 9.26011C33.5662 8.50579 32.1873 8.13036 30.1605 8.13381H14.6072C12.5542 8.13381 11.1604 8.51269 10.4259 9.27045C9.69139 10.0282 9.32641 11.4368 9.33097 13.4962V25.4439C9.33097 27.5033 9.69595 28.9119 10.4259 29.6696C11.1559 30.4274 12.5496 30.8063 14.6072 30.8063H26.8603L31.7379 35.7254C31.9131 35.9019 32.1506 36.0011 32.3983 36.0011C32.646 36.0011 32.8835 35.9019 33.0587 35.7254L33.4779 35.3011C33.5645 35.2138 33.6332 35.1102 33.6801 34.9961C33.727 34.882 33.7512 34.7597 33.7512 34.6362C33.7512 34.5127 33.727 34.3904 33.6801 34.2763C33.6332 34.1622 33.5645 34.0586 33.4779 33.9713L30.3402 30.8046L27.5121 27.9517C27.3217 27.7607 27.064 27.6534 26.7953 27.6534H14.4567C14.0905 27.6534 13.7393 27.5067 13.4804 27.2457C13.2215 26.9846 13.076 26.6306 13.076 26.2614V12.6148C13.076 12.2457 13.2215 11.8916 13.4804 11.6306C13.7393 11.3696 14.0905 11.2229 14.4567 11.2229H30.3111C30.6772 11.2229 31.0284 11.3696 31.2873 11.6306C31.5463 11.8916 31.6917 12.2457 31.6917 12.6148V23.9554C31.6915 24.0771 31.7151 24.1976 31.7612 24.3101C31.8073 24.4226 31.875 24.5248 31.9603 24.6108L35.1716 27.8483L37.3632 30.0577C37.4498 30.1451 37.5526 30.2144 37.6658 30.2617C37.7789 30.3089 37.9002 30.3333 38.0227 30.3333C38.1452 30.3333 38.2665 30.3089 38.3797 30.2617C38.4928 30.2144 38.5957 30.1451 38.6822 30.0577L39.1031 29.6334C39.1898 29.5461 39.2585 29.4425 39.3054 29.3284C39.3523 29.2143 39.3764 29.092 39.3764 28.9685C39.3764 28.845 39.3523 28.7227 39.3054 28.6086C39.2585 28.4946 39.1898 28.3909 39.1031 28.3036Z"
    fill="#02044F"
  />
  <path d="M22.939 2.20264L26.9493 11.2233C13.786 10.8266 9.32756 19.2643 9.32756 19.2643L4.57654 9.97285L22.939 2.20264Z" fill="#090C80" />
  <path
    d="M27.6217 2.2886C24.8074 5.77442 20.4002 11.1972 17.9195 14.2691C17.7908 14.4297 17.627 14.5581 17.4409 14.6442C17.2548 14.7304 17.0515 14.772 16.8468 14.7658C12.8554 14.6606 5.79646 14.2932 1.28667 14.1431C1.03594 14.1353 0.792564 14.056 0.584717 13.9144C0.376871 13.7728 0.213062 13.5747 0.112266 13.3432C0.0114696 13.1116 -0.0221891 12.856 0.0151882 12.6059C0.0525656 12.3558 0.159449 12.1216 0.323459 11.9302C3.18913 8.56687 7.77248 3.47871 10.2464 0.493086C10.3767 0.335029 10.5406 0.208602 10.726 0.123201C10.9114 0.0377993 11.1135 -0.00438099 11.3174 -0.000205977C15.2266 0.0929332 22.1487 0.03429 26.6021 0.0894836C26.8536 0.0923658 27.0992 0.166774 27.3107 0.304148C27.5221 0.441522 27.6908 0.636281 27.7973 0.866023C27.9038 1.09576 27.9439 1.35116 27.9128 1.60282C27.8817 1.85448 27.7808 2.09219 27.6217 2.2886Z"
    fill="#02044F"
  />
  <path
    d="M7.02982 25.546L6.59869 25.6599C6.38324 25.7163 6.18827 25.8336 6.03672 25.998C5.88518 26.1624 5.78336 26.367 5.74326 26.5878L5.66799 27L5.591 26.5878C5.5509 26.367 5.44909 26.1624 5.29754 25.998C5.146 25.8336 4.95103 25.7163 4.73558 25.6599L4.30444 25.546L4.73558 25.4356C4.94974 25.3789 5.14366 25.2624 5.295 25.0994C5.44634 24.9365 5.54895 24.7338 5.591 24.5146L5.66114 24.1489L5.72958 24.5146C5.77144 24.7338 5.87398 24.9367 6.02535 25.0997C6.17672 25.2626 6.37074 25.3791 6.585 25.4356L7.02982 25.546Z"
    fill="#FF8D0A"
  />
  <path
    d="M13.2488 6.91297L13.2009 6.66115C13.195 6.64468 13.1855 6.62973 13.1733 6.61735C13.161 6.60498 13.1461 6.59548 13.1298 6.58955C13.1135 6.58362 13.096 6.5814 13.0787 6.58304C13.0614 6.58469 13.0447 6.59016 13.0298 6.59906L5.50205 13.2378L5.47981 13.2499L5.43019 13.2844C5.41146 13.3053 5.40057 13.3321 5.3994 13.3603V23.7091C5.3966 23.744 5.40082 23.7791 5.4118 23.8123C5.42278 23.8455 5.44029 23.8762 5.46329 23.9024C5.48629 23.9287 5.5143 23.95 5.54565 23.9651C5.57701 23.9801 5.61105 23.9887 5.64576 23.9902C5.71267 23.9832 5.77419 23.95 5.81707 23.8978C5.85994 23.8455 5.88075 23.7784 5.87501 23.7108V13.5897L13.1837 7.05958C13.2105 7.04743 13.2319 7.02579 13.2439 6.99875C13.2559 6.97172 13.2576 6.9412 13.2488 6.91297Z"
    fill="#FF8D0A"
  />
  <path
    d="M44.0149 15.2438C43.979 15.387 43.9328 15.6371 43.8781 15.9958C43.2399 16.089 42.6275 16.1562 42.0389 16.2011C41.4504 16.2459 40.9679 16.2666 40.5864 16.2666C40.0769 16.2698 39.5694 16.2037 39.0774 16.07C38.619 15.9466 38.1959 15.7162 37.8422 15.3973C37.5032 15.1007 37.2418 14.7246 37.0809 14.3021C36.9214 13.8744 36.8419 13.4205 36.8465 12.9636C36.8451 12.4614 36.9314 11.9628 37.1014 11.4907C37.2585 11.0433 37.5182 10.6396 37.8593 10.3126C38.2044 9.98885 38.6121 9.74046 39.0569 9.58302C39.9883 9.25989 40.9978 9.24539 41.938 9.54163C42.3578 9.67333 42.7422 9.89985 43.062 10.204C43.3765 10.5102 43.6196 10.8832 43.7737 11.2957C43.9368 11.7252 44.0198 12.1813 44.0184 12.6411C44.0191 12.8721 44.0013 13.1028 43.9653 13.331C43.9327 13.5422 43.8811 13.7501 43.8114 13.9519C43.7444 14.1425 43.6584 14.3257 43.5547 14.4987C43.4607 14.659 43.3501 14.8088 43.2245 14.9454C43.1176 15.0593 43.0033 15.1659 42.8824 15.2645C42.7712 15.3559 42.6343 15.4542 42.4718 15.5629C42.6993 15.5439 42.8858 15.5215 43.0312 15.4974C43.1766 15.4732 43.3186 15.4404 43.4589 15.4025C43.5992 15.3646 43.784 15.3128 44.0149 15.2438ZM40.5471 9.99008C40.1818 9.98598 39.8186 10.0443 39.4727 10.1626C39.1333 10.2842 38.8239 10.4784 38.5659 10.7317C38.2921 11.004 38.0822 11.3346 37.9517 11.6994C37.8075 12.0852 37.7338 12.4943 37.7344 12.9067C37.7322 13.2571 37.7818 13.6059 37.8816 13.9416C37.9888 14.2762 38.17 14.5819 38.4116 14.8355C38.6531 15.0892 38.9487 15.2843 39.2759 15.4059C39.6235 15.5357 39.9916 15.6012 40.3623 15.5991C40.7455 15.6009 41.1261 15.5343 41.4863 15.4025C41.83 15.2781 42.1404 15.075 42.3931 14.8092C42.6438 14.5407 42.8315 14.2188 42.9422 13.8674C43.0594 13.4908 43.1171 13.0979 43.1133 12.7032C43.1267 12.1825 43.0127 11.6666 42.7814 11.2009C42.5787 10.8001 42.252 10.4767 41.8507 10.2798C41.4432 10.0859 40.9977 9.98681 40.5471 9.99008Z"
    fill="#02044F"
  />
  <path
    d="M45.0312 16.0114C45.0141 15.7285 44.9919 15.4767 44.9628 15.2525C45.2824 15.3797 45.6128 15.4772 45.9499 15.544C46.2186 15.5938 46.4911 15.6198 46.7643 15.6216C47.0742 15.6263 47.382 15.5706 47.671 15.4578C47.9334 15.3551 48.1634 15.1829 48.3366 14.9593C48.5099 14.7375 48.6018 14.462 48.5966 14.1797C48.6004 13.9515 48.5334 13.7277 48.405 13.5398C48.2632 13.3394 48.0628 13.1886 47.8319 13.1086C47.4973 12.9969 47.1455 12.9467 46.7934 12.9602C46.5915 12.9602 46.3657 12.9723 46.109 12.9947C46.1313 12.7153 46.1433 12.4894 46.1467 12.3152C46.2986 12.3431 46.4525 12.3581 46.6069 12.36C46.9302 12.3624 47.2523 12.3182 47.5633 12.2289C47.8378 12.158 48.0796 11.9934 48.2476 11.7632C48.402 11.5557 48.486 11.3035 48.4871 11.044C48.4881 10.8774 48.4512 10.7128 48.3793 10.5628C48.3114 10.4161 48.2064 10.29 48.0748 10.1971C47.9263 10.0977 47.7582 10.0318 47.5821 10.0039C47.3947 9.96881 47.2046 9.95092 47.0141 9.95047C46.7739 9.95005 46.5339 9.96503 46.2955 9.99532C46.0175 10.0361 45.7421 10.0937 45.4709 10.1678C45.5233 9.94361 45.5639 9.71676 45.5924 9.48823C45.9705 9.43303 46.2767 9.39336 46.4957 9.37267C46.7147 9.35197 46.9354 9.33989 47.1407 9.33989C47.4645 9.33842 47.7877 9.36904 48.1056 9.43131C48.3761 9.47938 48.6343 9.58141 48.8652 9.73142C49.062 9.86107 49.2185 10.044 49.3169 10.2592C49.4134 10.4761 49.4625 10.7114 49.4606 10.9491C49.4604 11.1329 49.4321 11.3156 49.3767 11.4907C49.3287 11.6569 49.2554 11.8146 49.1595 11.9581C49.0777 12.0802 48.9785 12.1894 48.8652 12.2824C48.76 12.3662 48.6451 12.4369 48.523 12.4928C48.3429 12.5709 48.1577 12.6366 47.9687 12.6895C48.1673 12.7066 48.3638 12.743 48.5555 12.7981C48.6885 12.8413 48.8147 12.9035 48.9302 12.9827C49.0533 13.0723 49.1613 13.1811 49.2501 13.3052C49.3413 13.4367 49.4091 13.5832 49.4503 13.7381C49.4936 13.903 49.5154 14.0729 49.5153 14.2435C49.5152 14.5439 49.443 14.8397 49.3049 15.1059C49.1673 15.3776 48.9621 15.6088 48.7095 15.7768C48.4433 15.9538 48.1469 16.0796 47.8353 16.1477C47.4983 16.223 47.154 16.26 46.8088 16.2581C46.5458 16.2605 46.2829 16.2455 46.0218 16.2132C45.6883 16.1638 45.3576 16.0965 45.0312 16.0114Z"
    fill="#02044F"
  />
  <path
    d="M37.0073 24.1779C37.0815 23.3304 37.1453 22.2956 37.1989 21.0732C37.2525 19.8509 37.2856 18.6436 37.2982 17.4512H37.8114H38.2648L38.1091 20.5696L37.9928 23.5121H38.9201C39.6044 23.5121 40.0954 23.5121 40.3777 23.5121C40.66 23.5121 40.932 23.4966 41.1955 23.4793C41.1767 23.688 41.1595 23.9192 41.1459 24.1693C40.4068 24.1624 39.7544 24.1589 39.1887 24.1589L37.0073 24.1779Z"
    fill="#02044F"
  />
  <path
    d="M42.1587 19.9817C42.1895 19.8386 42.2203 19.6247 42.2528 19.3418C42.5876 19.2515 42.9276 19.1818 43.2708 19.1331C43.5498 19.0958 43.831 19.0768 44.1125 19.0762C44.3888 19.0748 44.6646 19.1019 44.9354 19.1573C45.1637 19.2007 45.3808 19.2905 45.5736 19.4212C45.7281 19.5216 45.8478 19.6681 45.9157 19.8403C45.9715 20.0034 45.9993 20.1749 45.9979 20.3474C45.9979 20.5774 45.9807 20.9574 45.9465 21.4875C45.914 22.0205 45.8866 22.5224 45.8695 22.9656C45.8524 23.4089 45.8439 23.828 45.8439 24.173C45.6671 24.1661 45.5234 24.1627 45.4127 24.1627C45.3084 24.1627 45.1595 24.1627 44.9679 24.173L45.0723 22.8277L45.1459 21.2374C45.0312 21.3271 44.9457 21.3892 44.8892 21.4254C44.8275 21.4639 44.7629 21.4974 44.6959 21.5254C44.624 21.5565 44.5453 21.5875 44.4598 21.6151C44.3743 21.6427 44.2049 21.691 43.9551 21.76C43.7053 21.829 43.5291 21.8808 43.4247 21.917C43.2411 21.9726 43.0629 22.0453 42.8927 22.1343C42.7737 22.1979 42.6638 22.2774 42.5659 22.3706C42.4871 22.4419 42.4236 22.5288 42.3794 22.6259C42.3369 22.731 42.3154 22.8435 42.3161 22.957C42.3128 23.1247 42.3679 23.2883 42.4718 23.4193C42.5727 23.548 42.7099 23.643 42.8653 23.6918C43.05 23.7474 43.2423 23.7736 43.435 23.7694C43.5786 23.7686 43.722 23.7588 43.8644 23.7401C44.0683 23.7076 44.2692 23.6579 44.4649 23.5918C44.4014 23.7833 44.3494 23.9786 44.3093 24.1765C44.1172 24.2166 43.923 24.2454 43.7276 24.2627C43.577 24.2748 43.4367 24.2799 43.3033 24.2799C42.9481 24.2951 42.5933 24.2418 42.2579 24.123C42.0226 24.0309 41.8244 23.8621 41.6951 23.6435C41.5703 23.4303 41.5047 23.1873 41.5052 22.9398C41.5039 22.8008 41.5259 22.6626 41.5702 22.531C41.6127 22.4076 41.6732 22.2914 41.7498 22.186C41.8404 22.0684 41.9483 21.9654 42.0698 21.8808C42.2045 21.7807 42.3503 21.6967 42.5043 21.6307C42.6773 21.5556 42.8544 21.4905 43.0347 21.4358C43.2366 21.3725 43.5605 21.2863 44.0064 21.177C44.1484 21.1443 44.2716 21.1098 44.3726 21.0753C44.4735 21.0408 44.5625 21.008 44.6412 20.9752C44.7136 20.9445 44.7825 20.9057 44.8465 20.8597C44.9077 20.8099 44.9618 20.7519 45.0073 20.6872C45.0525 20.6285 45.0888 20.5634 45.1151 20.494C45.1372 20.4308 45.1487 20.3644 45.1493 20.2974C45.1524 20.144 45.0959 19.9954 44.9919 19.8834C44.8821 19.765 44.7407 19.6812 44.5847 19.642C44.3907 19.5925 44.1911 19.5693 43.991 19.573C43.7728 19.5734 43.5549 19.5907 43.3392 19.6247C43.1446 19.6532 42.9521 19.6941 42.7626 19.7472C42.6001 19.8162 42.3999 19.8869 42.1587 19.9817Z"
    fill="#02044F"
  />
  <path
    d="M47.1304 24.1781C47.2855 22.1187 47.367 20.456 47.375 19.19H47.8147H48.239L48.1757 20.1748C48.2561 20.0369 48.3211 19.9316 48.3707 19.8575C48.4276 19.7728 48.4929 19.6941 48.5658 19.6229C48.6538 19.5363 48.7507 19.4594 48.8549 19.3935C48.9766 19.3185 49.1078 19.2605 49.245 19.221C49.3942 19.1734 49.547 19.1377 49.7018 19.1141C49.8547 19.0915 50.0091 19.0799 50.1637 19.0796C50.4373 19.0789 50.7098 19.1137 50.9746 19.1831C51.2137 19.2423 51.4343 19.3609 51.6162 19.528C51.7754 19.6654 51.8938 19.8445 51.9584 20.0455C52.0173 20.2482 52.0461 20.4586 52.0439 20.6699C52.0439 20.713 52.0439 20.7958 52.0439 20.9165C52.0439 21.0372 52.0354 21.1977 52.0251 21.3943L51.9276 23.464C51.9276 23.6607 51.9173 23.9021 51.9139 24.1885C51.7668 24.1816 51.6282 24.1781 51.4982 24.1781C51.3391 24.1781 51.1885 24.1781 51.0482 24.1885C51.0807 23.79 51.1064 23.4088 51.1218 23.0397L51.1868 21.8927C51.2056 21.4995 51.2159 21.2028 51.2159 21.0027C51.227 20.7638 51.1763 20.5261 51.0687 20.3128C50.9605 20.131 50.7957 19.9904 50.6 19.9127C50.3707 19.8169 50.1244 19.7693 49.8763 19.773C49.5322 19.7624 49.1929 19.8568 48.9028 20.0438C48.6467 20.2212 48.4466 20.469 48.3263 20.7578C48.2121 21.0709 48.1446 21.3993 48.1261 21.7323C48.0759 22.2475 48.0411 23.0668 48.0217 24.1902C47.8404 24.1902 47.6984 24.1798 47.5991 24.1798C47.4999 24.1798 47.3357 24.1712 47.1304 24.1781Z"
    fill="#02044F"
  />
  <path
    d="M53.4999 25.62C53.8535 25.7325 54.2142 25.8212 54.5795 25.8856C54.8407 25.9295 55.105 25.9526 55.3699 25.9546C55.6252 25.9569 55.8793 25.9185 56.1227 25.8407C56.3025 25.7853 56.4698 25.6951 56.6154 25.5751C56.7246 25.4797 56.8126 25.3622 56.8737 25.2302C56.9695 25.0033 57.0306 24.7631 57.0551 24.5178C57.0836 24.2878 57.1064 23.8233 57.1235 23.1242C57.0588 23.2476 56.9874 23.3674 56.9096 23.4829C56.8353 23.5869 56.7492 23.6819 56.653 23.7658C56.5391 23.8672 56.4133 23.9541 56.2783 24.0245C56.1204 24.1033 55.9531 24.1613 55.7805 24.197C55.5881 24.2421 55.3912 24.2647 55.1937 24.2643C54.9113 24.2663 54.6302 24.2244 54.3605 24.1401C54.0921 24.0567 53.8473 23.9101 53.6462 23.7125C53.4451 23.5148 53.2935 23.2718 53.2039 23.0034C53.0975 22.7065 53.0437 22.393 53.0448 22.0772C53.0428 21.6443 53.1236 21.2151 53.2826 20.813C53.4305 20.4267 53.6681 20.0819 53.9755 19.8074C54.2718 19.5432 54.6224 19.3483 55.002 19.2365C55.4112 19.1202 55.8344 19.0622 56.2595 19.064C56.888 19.0771 57.5142 19.1446 58.1312 19.2658L58.0764 19.8712L57.9293 22.6309C57.9293 22.6861 57.9293 23.0207 57.9054 23.6347L57.8763 24.6541C57.8633 24.8467 57.8336 25.0377 57.7873 25.225C57.7494 25.3585 57.6972 25.4875 57.6316 25.6096C57.5734 25.7214 57.4997 25.8242 57.4126 25.9149C57.3242 26.012 57.2242 26.0977 57.1149 26.1702C57.0006 26.2458 56.8777 26.3071 56.7488 26.353C56.5646 26.4193 56.3743 26.4672 56.1808 26.4962C55.9613 26.532 55.7393 26.5499 55.517 26.5496C55.2033 26.5504 54.8897 26.5337 54.5778 26.4996C54.232 26.4594 53.8892 26.3971 53.5513 26.3133L53.5376 26.0425C53.5307 25.9925 53.5187 25.8459 53.4999 25.62ZM57.2535 19.8108C56.9157 19.741 56.5719 19.7046 56.227 19.7022C55.928 19.6999 55.63 19.7376 55.3408 19.8143C55.0634 19.8928 54.8077 20.0344 54.5932 20.2282C54.3585 20.4418 54.1773 20.7084 54.0645 21.0061C53.9373 21.3204 53.8722 21.6567 53.8729 21.9962C53.8679 22.2955 53.9262 22.5924 54.044 22.8672C54.1497 23.1204 54.338 23.3297 54.5778 23.4605C54.8127 23.5814 55.0709 23.6492 55.3344 23.6593C55.5979 23.6695 55.8605 23.6216 56.1038 23.5192C56.3172 23.4204 56.5051 23.2735 56.653 23.0897C56.8202 22.8863 56.9463 22.6519 57.0243 22.3998C57.1007 22.1333 57.1477 21.8591 57.1646 21.5822C57.2022 21.2942 57.2279 20.6974 57.2535 19.8108Z"
    fill="#02044F"
  />
  <path
    d="M63.8675 24.1783C63.7079 24.1714 63.571 24.1679 63.4569 24.1679C63.3429 24.1679 63.2077 24.1714 63.0515 24.1783L63.0771 23.2279C63.0157 23.3467 62.9478 23.4618 62.8735 23.5729C62.8114 23.6591 62.7403 23.7383 62.6614 23.8092C62.5807 23.8826 62.493 23.9479 62.3996 24.0041C62.2994 24.0606 62.1939 24.1074 62.0848 24.1438C61.9469 24.1895 61.8056 24.2241 61.6623 24.2473C61.4926 24.2756 61.3209 24.2894 61.149 24.2887C60.7982 24.299 60.449 24.2374 60.1225 24.1076C59.8629 24.0031 59.6401 23.823 59.4826 23.5901C59.3235 23.3126 59.248 22.9943 59.2654 22.6743C59.2654 22.6156 59.2688 22.5156 59.2756 22.3741C59.2756 22.2327 59.291 22.0499 59.303 21.8222L59.3851 20.1837L59.4005 19.6559C59.4005 19.5351 59.4005 19.3799 59.4005 19.1936H59.8505H60.2714C60.2246 19.7686 60.1807 20.397 60.1396 21.0788C60.0986 21.7607 60.078 22.1976 60.078 22.3897C60.0677 22.6276 60.1153 22.8644 60.2166 23.0796C60.3218 23.2623 60.4861 23.4029 60.682 23.478C60.9152 23.5745 61.1655 23.622 61.4176 23.6177C61.6544 23.6183 61.8892 23.575 62.1105 23.4901C62.2887 23.4215 62.4516 23.3177 62.5895 23.1848C62.741 23.0273 62.8607 22.8416 62.942 22.638C63.0202 22.4339 63.0725 22.2207 63.0977 22.0033C63.1216 21.8147 63.1444 21.4784 63.1661 20.9943C63.1918 20.4027 63.2106 19.8025 63.2191 19.1919H63.6742H64.0848C64.0403 19.7818 63.9867 20.6792 63.924 21.8843C63.8966 22.5466 63.8778 23.3113 63.8675 24.1783Z"
    fill="#02044F"
  />
  <path
    d="M65.4947 19.9817C65.5238 19.8386 65.5546 19.6247 65.5871 19.3418C65.9219 19.2517 66.2618 19.182 66.605 19.1331C66.8841 19.0958 67.1653 19.0768 67.4468 19.0762C67.7231 19.0748 67.9988 19.1019 68.2697 19.1573C68.498 19.2007 68.7151 19.2905 68.9078 19.4212C69.0628 19.521 69.1826 19.6677 69.25 19.8403C69.3057 20.0034 69.3335 20.1749 69.3321 20.3474C69.3321 20.5734 69.3167 20.9528 69.2825 21.4875C69.2483 22.0222 69.2226 22.5224 69.2038 22.9656C69.185 23.4089 69.1781 23.828 69.1781 24.173C69.0025 24.1661 68.8588 24.1627 68.747 24.1627C68.6426 24.1627 68.4955 24.1627 68.3022 24.173L68.4065 22.8277L68.4801 21.2374C68.3655 21.3271 68.2799 21.3892 68.2235 21.4254C68.1618 21.4639 68.0971 21.4974 68.0302 21.5254C67.9583 21.5565 67.8796 21.5875 67.7941 21.6151C67.7085 21.6427 67.5391 21.691 67.2911 21.76C67.043 21.829 66.8651 21.8808 66.7607 21.917C66.5764 21.9723 66.3976 22.045 66.2269 22.1343C66.108 22.1979 65.9981 22.2774 65.9002 22.3706C65.8213 22.4419 65.7579 22.5288 65.7137 22.6259C65.6712 22.731 65.6496 22.8435 65.6504 22.957C65.6479 23.1246 65.7029 23.2879 65.8061 23.4193C65.907 23.548 66.0441 23.643 66.1995 23.6918C66.3843 23.7473 66.5765 23.7735 66.7693 23.7694C66.9129 23.7686 67.0563 23.7588 67.1987 23.7401C67.4027 23.708 67.6036 23.6583 67.7992 23.5918C67.7357 23.7833 67.6837 23.9786 67.6435 24.1765C67.4515 24.2167 67.2572 24.2455 67.0618 24.2627C66.9113 24.2748 66.771 24.2799 66.6375 24.2799C66.2824 24.2951 65.9276 24.2418 65.5922 24.123C65.357 24.0313 65.1593 23.8623 65.031 23.6435C64.9056 23.4306 64.8399 23.1874 64.8411 22.9398C64.8396 22.8006 64.8622 22.6623 64.9079 22.531C64.9469 22.4078 65.0046 22.2914 65.0789 22.186C65.1699 22.0688 65.2778 21.9659 65.3989 21.8808C65.5338 21.781 65.6796 21.6971 65.8334 21.6307C66.0065 21.5559 66.1836 21.4908 66.3638 21.4358C66.5657 21.3725 66.8896 21.2863 67.3355 21.177C67.4592 21.1495 67.5815 21.1155 67.7017 21.0753C67.8026 21.0408 67.8916 21.008 67.9703 20.9752C68.0431 20.9452 68.112 20.9064 68.1756 20.8597C68.2372 20.8104 68.2914 20.7523 68.3364 20.6872C68.3829 20.6294 68.4193 20.5641 68.4442 20.494C68.4663 20.4308 68.4779 20.3644 68.4784 20.2974C68.4812 20.1444 68.4255 19.9961 68.3227 19.8834C68.2116 19.7737 68.0724 19.6972 67.9207 19.6627C67.7267 19.6132 67.527 19.59 67.327 19.5937C67.1087 19.5942 66.8908 19.6115 66.6752 19.6454C66.4806 19.6741 66.2881 19.715 66.0986 19.7679C65.9361 19.8162 65.7342 19.8869 65.4947 19.9817Z"
    fill="#02044F"
  />
  <path
    d="M70.8034 25.62C71.1565 25.7322 71.5166 25.821 71.8812 25.8856C72.1431 25.9294 72.4079 25.9525 72.6733 25.9546C72.9286 25.9568 73.1827 25.9184 73.4261 25.8407C73.6059 25.7853 73.7733 25.6951 73.9188 25.5751C74.0281 25.4797 74.1161 25.3622 74.1772 25.2302C74.273 25.0033 74.3341 24.7631 74.3585 24.5178C74.387 24.2878 74.4093 23.8233 74.4252 23.1242C74.3617 23.2479 74.2908 23.3677 74.2131 23.4829C74.1387 23.5869 74.0526 23.6819 73.9565 23.7658C73.8426 23.8672 73.7168 23.9541 73.5818 24.0245C73.4234 24.1036 73.2555 24.1616 73.0822 24.197C72.8905 24.2423 72.6941 24.2648 72.4971 24.2643C72.2147 24.2663 71.9337 24.2244 71.6639 24.1401C71.3956 24.0567 71.1507 23.9101 70.9496 23.7125C70.7485 23.5148 70.597 23.2718 70.5074 23.0034C70.401 22.7065 70.3471 22.393 70.3483 22.0772C70.3463 21.6443 70.427 21.2151 70.5861 20.813C70.7339 20.4267 70.9716 20.0819 71.279 19.8074C71.5753 19.5432 71.9258 19.3483 72.3055 19.2365C72.7147 19.1202 73.1379 19.0622 73.563 19.064C74.1915 19.0771 74.8176 19.1446 75.4346 19.2658L75.3799 19.8712L75.2328 22.6309C75.2328 22.6861 75.2242 23.0207 75.2088 23.6347L75.1797 24.6541C75.1668 24.8467 75.137 25.0377 75.0908 25.225C75.0521 25.3582 74.9999 25.4871 74.9351 25.6096C74.8769 25.7218 74.8025 25.8247 74.7144 25.9149C74.6267 26.0128 74.5266 26.0986 74.4167 26.1702C74.3026 26.2461 74.1796 26.3075 74.0506 26.353C73.8669 26.4193 73.6772 26.4672 73.4843 26.4962C73.2648 26.532 73.0428 26.5499 72.8205 26.5496C72.5067 26.5504 72.1931 26.5337 71.8812 26.4996C71.5355 26.4594 71.1927 26.3971 70.8547 26.3133L70.841 26.0425C70.8291 25.9925 70.8291 25.8459 70.8034 25.62ZM74.557 19.8108C74.2191 19.7411 73.8753 19.7047 73.5305 19.7022C73.232 19.6998 72.9346 19.7375 72.646 19.8143C72.3686 19.8928 72.1128 20.0344 71.8983 20.2282C71.6637 20.4422 71.482 20.7086 71.368 21.0061C71.2422 21.3208 71.1777 21.6569 71.1781 21.9962C71.1731 22.2955 71.2314 22.5924 71.3491 22.8672C71.4549 23.1204 71.6432 23.3297 71.8829 23.4605C72.1178 23.5814 72.376 23.6492 72.6396 23.6593C72.9031 23.6695 73.1657 23.6216 73.409 23.5192C73.6221 23.4201 73.81 23.2732 73.9582 23.0897C74.1255 22.8866 74.2511 22.6521 74.3277 22.3998C74.4049 22.1334 74.4525 21.8592 74.4697 21.5822C74.5039 21.2942 74.5313 20.6974 74.557 19.8108Z"
    fill="#02044F"
  />
  <path
    d="M80.5808 23.3951C80.5415 23.5676 80.5021 23.8056 80.4628 24.085C80.1955 24.1555 79.9241 24.2091 79.6501 24.2454C79.423 24.2729 79.1945 24.2867 78.9658 24.2868C78.5951 24.2922 78.2256 24.2428 77.8691 24.1402C77.5508 24.0453 77.2633 23.8667 77.036 23.6228C76.8089 23.3852 76.6386 23.0985 76.5381 22.7845C76.4356 22.4612 76.3843 22.1236 76.3858 21.7841C76.3823 21.3158 76.4774 20.8519 76.6647 20.4233C76.8401 20.0174 77.1321 19.6738 77.503 19.4367C77.9317 19.1818 78.424 19.0566 78.9213 19.0762C79.2115 19.0742 79.5002 19.1184 79.7767 19.2073C80.0295 19.2836 80.2606 19.4196 80.4508 19.604C80.6352 19.7896 80.7766 20.014 80.8648 20.2612C80.9659 20.5371 81.0158 20.8294 81.012 21.1236C81.0119 21.2392 81.0022 21.3546 80.9829 21.4685H77.2447C77.231 21.6502 77.2241 21.7882 77.2241 21.8825C77.221 22.2125 77.2948 22.5386 77.4397 22.8346C77.5759 23.1174 77.7984 23.3489 78.0744 23.4951C78.3738 23.6478 78.7057 23.7242 79.0411 23.7176C79.5682 23.6947 80.0882 23.5857 80.5808 23.3951ZM77.2892 21.0511H80.1976C80.1978 20.8893 80.1846 20.7278 80.1582 20.5682C80.1321 20.444 80.0895 20.3239 80.0316 20.2111C79.9703 20.0886 79.8847 19.98 79.7802 19.892C79.6684 19.7974 79.5386 19.7269 79.3986 19.6851C79.2432 19.6354 79.0809 19.611 78.9179 19.6126C78.7382 19.6124 78.5594 19.6391 78.3875 19.692C78.2289 19.7404 78.0788 19.8138 77.9427 19.9093C77.8172 19.9983 77.7068 20.1072 77.6159 20.2318C77.5341 20.3415 77.4668 20.4616 77.4158 20.5889C77.3599 20.7392 77.3159 20.8938 77.284 21.0511H77.2892Z"
    fill="#02044F"
  />
</svg>
