<svg width="24" height="24" viewBox="0 0 24 24" fill="none" xmlns="http://www.w3.org/2000/svg">
<path d="M12 14.1C10.875 14.1 9.9 13.2 9.9 12C9.9 10.875 10.8 9.9 12 9.9C13.125 9.9 14.1 10.8 14.1 12C14.1 13.125 13.125 14.1 12 14.1Z" fill="white"/>
<path fill-rule="evenodd" clip-rule="evenodd" d="M14.55 6.9H9.45C8.85 6.975 8.55 7.05 8.325 7.125C8.025 7.2 7.8 7.35 7.575 7.575C7.39696 7.75304 7.31284 7.93108 7.21116 8.14628C7.18437 8.20299 7.15628 8.26244 7.125 8.325C7.1134 8.35981 7.1 8.39641 7.08564 8.43564C7.00718 8.65 6.9 8.94282 6.9 9.45V14.55C6.975 15.15 7.05 15.45 7.125 15.675C7.2 15.975 7.35 16.2 7.575 16.425C7.75304 16.603 7.93108 16.6872 8.14628 16.7888C8.20304 16.8157 8.26239 16.8437 8.325 16.875C8.35981 16.8866 8.39641 16.9 8.43564 16.9144C8.65 16.9928 8.94282 17.1 9.45 17.1H14.55C15.15 17.025 15.45 16.95 15.675 16.875C15.975 16.8 16.2 16.65 16.425 16.425C16.603 16.247 16.6872 16.0689 16.7888 15.8537C16.8156 15.797 16.8437 15.7376 16.875 15.675C16.8866 15.6402 16.9 15.6036 16.9144 15.5644C16.9928 15.35 17.1 15.0572 17.1 14.55V9.45C17.025 8.85 16.95 8.55 16.875 8.325C16.8 8.025 16.65 7.8 16.425 7.575C16.247 7.39696 16.0689 7.31284 15.8537 7.21116C15.797 7.18439 15.7375 7.15625 15.675 7.125C15.6402 7.1134 15.6036 7.1 15.5644 7.08564C15.35 7.00718 15.0572 6.9 14.55 6.9ZM12 8.775C10.2 8.775 8.775 10.2 8.775 12C8.775 13.8 10.2 15.225 12 15.225C13.8 15.225 15.225 13.8 15.225 12C15.225 10.2 13.8 8.775 12 8.775ZM16.05 8.7C16.05 9.11421 15.7142 9.45 15.3 9.45C14.8858 9.45 14.55 9.11421 14.55 8.7C14.55 8.28578 14.8858 7.95 15.3 7.95C15.7142 7.95 16.05 8.28578 16.05 8.7Z" fill="white"/>
<path fill-rule="evenodd" clip-rule="evenodd" d="M0 12C0 5.37258 5.37258 0 12 0C18.6274 0 24 5.37258 24 12C24 18.6274 18.6274 24 12 24C5.37258 24 0 18.6274 0 12ZM9.45 5.775H14.55C15.225 5.85 15.675 5.925 16.05 6.075C16.5 6.3 16.8 6.45 17.175 6.825C17.55 7.2 17.775 7.575 17.925 7.95C18.075 8.325 18.225 8.775 18.225 9.45V14.55C18.15 15.225 18.075 15.675 17.925 16.05C17.7 16.5 17.55 16.8 17.175 17.175C16.8 17.55 16.425 17.775 16.05 17.925C15.675 18.075 15.225 18.225 14.55 18.225H9.45C8.775 18.15 8.325 18.075 7.95 17.925C7.5 17.7 7.2 17.55 6.825 17.175C6.45 16.8 6.225 16.425 6.075 16.05C5.925 15.675 5.775 15.225 5.775 14.55V9.45C5.85 8.775 5.925 8.325 6.075 7.95C6.3 7.5 6.45 7.2 6.825 6.825C7.2 6.45 7.575 6.225 7.95 6.075C8.325 5.925 8.775 5.775 9.45 5.775Z" fill="white"/>
</svg>
